<svg width="189" height="189" viewBox="0 0 189 189" fill="none" xmlns="http://www.w3.org/2000/svg">
<path d="M94.4641 0C42.375 0 0 42.375 0 94.4641C0 146.553 42.375 188.928 94.4641 188.928C146.553 188.928 188.928 146.553 188.928 94.4641C188.93 42.375 146.553 0 94.4641 0ZM94.4641 171.251C52.125 171.251 17.6769 136.804 17.6769 94.4641C17.6769 52.125 52.1242 17.6769 94.4641 17.6769C136.804 17.6769 171.251 52.1242 171.251 94.4641C171.253 136.807 136.806 171.251 94.4641 171.251Z" fill="#A92323"/>
<path d="M94.4641 29.4296C58.5491 29.4296 29.4335 58.5471 29.4335 94.4641C29.4335 130.381 58.5495 159.499 94.4641 159.499C130.384 159.499 159.499 130.383 159.499 94.4641C159.499 58.5491 130.384 29.4296 94.4641 29.4296ZM122.983 134.613L94.6073 118.964L66.4185 134.605L71.5129 102.843L48.7907 80.4092L80.5592 75.979L94.6061 47.134L108.84 76.074L140.136 80.3969L117.417 102.842L122.983 134.613Z" fill="#1D4DF5"/>
</svg>
